<?xml version="1.0" standalone="no"?>
<!DOCTYPE svg PUBLIC "-//W3C//DTD SVG 20010904//EN"
 "http://www.w3.org/TR/2001/REC-SVG-20010904/DTD/svg10.dtd">
<svg version="1.0" xmlns="http://www.w3.org/2000/svg"
 width="500.000000pt" height="311.000000pt" viewBox="0 0 500.000000 311.000000"
 preserveAspectRatio="xMidYMid meet">

<g transform="translate(0.000000,311.000000) scale(0.100000,-0.100000)"
fill="#000000" stroke="none">
<path d="M411 2234 c-132 -35 -239 -123 -283 -232 -18 -47 -23 -76 -23 -162 0
-94 3 -111 28 -165 34 -72 75 -116 142 -154 72 -41 133 -58 285 -81 87 -13
151 -28 180 -43 116 -59 101 -206 -27 -267 -39 -19 -70 -24 -164 -28 -178 -7
-284 32 -383 139 l-53 57 -7 -91 c-3 -49 -6 -123 -6 -163 l0 -74 49 -25 c28
-13 89 -37 138 -51 78 -24 105 -27 243 -28 184 -1 259 17 362 87 120 82 178
195 178 346 0 231 -114 336 -427 392 -59 10 -132 26 -160 34 -145 42 -177 198
-54 262 36 19 60 23 127 23 146 0 257 -36 332 -107 50 -48 48 -52 57 123 l7
130 -69 32 c-37 17 -101 38 -141 47 -91 19 -259 18 -331 -1z"/>
<path d="M4044 2230 c-270 -70 -460 -284 -510 -571 -65 -371 138 -691 496
-780 118 -30 280 -24 395 15 208 71 371 233 439 437 22 66 30 109 34 200 6
147 -14 252 -70 368 -79 165 -251 298 -433 336 -98 21 -263 18 -351 -5z m267
-234 c142 -33 252 -148 295 -309 18 -66 18 -217 0 -282 -32 -120 -105 -214
-206 -263 -45 -22 -72 -27 -151 -30 -115 -5 -188 13 -266 64 -111 73 -172 187
-180 339 -18 330 215 550 508 481z"/>
<path d="M1390 1555 l0 -675 135 0 135 0 0 675 0 675 -135 0 -135 0 0 -675z"/>
<path d="M2050 1555 l0 -675 135 0 135 0 2 425 3 426 159 -261 c87 -143 161
-262 165 -264 4 -3 76 118 160 269 84 150 159 281 166 291 12 16 14 -43 15
-433 l0 -453 130 0 130 0 0 675 0 676 -141 -3 -141 -3 -157 -277 c-86 -152
-159 -279 -162 -283 -4 -3 -82 122 -174 280 l-168 285 -129 0 -128 0 0 -675z"/>
</g>
</svg>
